<svg xmlns="http://www.w3.org/2000/svg" viewBox="0 0 1400 2800" font-family="'SF Pro Display', 'Inter', -apple-system, sans-serif">
  <defs>
    <linearGradient id="bg" x1="0%" y1="0%" x2="100%" y2="100%">
      <stop offset="0%" style="stop-color:#0f172a" />
      <stop offset="100%" style="stop-color:#1e1b4b" />
    </linearGradient>
    <linearGradient id="sidebar" x1="0%" y1="0%" x2="0%" y2="100%">
      <stop offset="0%" style="stop-color:#111827" />
      <stop offset="100%" style="stop-color:#0f172a" />
    </linearGradient>
    <linearGradient id="chatBg" x1="0%" y1="0%" x2="0%" y2="100%">
      <stop offset="0%" style="stop-color:#f8fafc" />
      <stop offset="100%" style="stop-color:#f1f5f9" />
    </linearGradient>
    <linearGradient id="inputGrad" x1="0%" y1="0%" x2="0%" y2="100%">
      <stop offset="0%" style="stop-color:#ffffff" />
      <stop offset="100%" style="stop-color:#f8fafc" />
    </linearGradient>
    <linearGradient id="sendBtn" x1="0%" y1="0%" x2="100%" y2="100%">
      <stop offset="0%" style="stop-color:#3b82f6" />
      <stop offset="100%" style="stop-color:#2563eb" />
    </linearGradient>
    <linearGradient id="agentBadge" x1="0%" y1="0%" x2="100%" y2="0%">
      <stop offset="0%" style="stop-color:#8b5cf6" />
      <stop offset="100%" style="stop-color:#a78bfa" />
    </linearGradient>
    <filter id="shadow">
      <feDropShadow dx="0" dy="2" stdDeviation="6" flood-color="rgba(0,0,0,0.1)" />
    </filter>
    <filter id="shadowLg">
      <feDropShadow dx="0" dy="4" stdDeviation="12" flood-color="rgba(0,0,0,0.15)" />
    </filter>
    <clipPath id="screenClip"><rect x="0" y="0" width="1400" height="900" rx="12" /></clipPath>
  </defs>

  <!-- Page Background -->
  <rect width="1400" height="2800" fill="url(#bg)" />

  <!-- ============================================= -->
  <!-- TITLE -->
  <!-- ============================================= -->
  <text x="700" y="50" text-anchor="middle" fill="white" font-size="26" font-weight="700">Talor Desktop — UI Redesign</text>
  <text x="700" y="76" text-anchor="middle" fill="rgba(255,255,255,0.4)" font-size="12" letter-spacing="2">MAIN LAYOUT · CHAT EXPERIENCE · AGENT INTEGRATION</text>

  <!-- ============================================= -->
  <!-- SCREEN 1: MAIN CHAT LAYOUT -->
  <!-- ============================================= -->
  <text x="50" y="120" fill="#60a5fa" font-size="14" font-weight="600" letter-spacing="1">SCREEN 1 — 主聊天界面（默认首页）</text>

  <g transform="translate(50, 140)" clip-path="url(#screenClip)">
    <!-- Window Chrome -->
    <rect width="1300" height="900" rx="12" fill="#1e293b" />
    <rect x="0" y="0" width="1300" height="36" rx="12" fill="#1e293b" />
    <rect x="0" y="24" width="1300" height="12" fill="#1e293b" />
    <!-- Traffic lights -->
    <circle cx="20" cy="18" r="6" fill="#ef4444" />
    <circle cx="40" cy="18" r="6" fill="#eab308" />
    <circle cx="60" cy="18" r="6" fill="#22c55e" />
    <text x="650" y="22" text-anchor="middle" fill="rgba(255,255,255,0.4)" font-size="11">Talor</text>

    <!-- ═══ LEFT SIDEBAR (260px) ═══ -->
    <rect x="0" y="36" width="260" height="864" fill="url(#sidebar)" />

    <!-- Sidebar: Search -->
    <g transform="translate(16, 52)">
      <rect width="228" height="36" rx="8" fill="rgba(255,255,255,0.06)" />
      <text x="36" y="23" fill="rgba(255,255,255,0.3)" font-size="12">搜索会话...</text>
      <text x="12" y="23" fill="rgba(255,255,255,0.25)" font-size="13">🔍</text>
      <rect x="188" y="6" width="32" height="24" rx="5" fill="rgba(255,255,255,0.06)" />
      <text x="204" y="22" text-anchor="middle" fill="rgba(255,255,255,0.3)" font-size="9">⌘K</text>
    </g>

    <!-- Sidebar: New Chat Button -->
    <g transform="translate(16, 96)">
      <rect width="228" height="40" rx="10" fill="rgba(59,130,246,0.12)" stroke="rgba(59,130,246,0.25)" stroke-width="0.5" />
      <text x="114" y="26" text-anchor="middle" fill="#60a5fa" font-size="13" font-weight="600">+ 新建会话</text>
    </g>

    <!-- Sidebar: Section "今天" -->
    <text x="20" y="162" fill="rgba(255,255,255,0.3)" font-size="10" font-weight="600" letter-spacing="1">今天</text>

    <!-- Session item (active) -->
    <g transform="translate(10, 172)">
      <rect width="240" height="56" rx="10" fill="rgba(59,130,246,0.12)" />
      <rect x="8" y="10" width="28" height="28" rx="7" fill="rgba(139,92,246,0.3)" />
      <text x="22" y="29" text-anchor="middle" fill="#a78bfa" font-size="11" font-weight="700">飞</text>
      <text x="44" y="24" fill="white" font-size="12" font-weight="500">飞书文档整理</text>
      <text x="44" y="40" fill="rgba(255,255,255,0.3)" font-size="10">飞书文档助手 · 2分钟前</text>
    </g>

    <!-- Session item -->
    <g transform="translate(10, 234)">
      <rect width="240" height="56" rx="10" fill="transparent" />
      <rect x="8" y="10" width="28" height="28" rx="7" fill="rgba(59,130,246,0.15)" />
      <text x="22" y="29" text-anchor="middle" fill="#60a5fa" font-size="11" font-weight="700">T</text>
      <text x="44" y="24" fill="rgba(255,255,255,0.7)" font-size="12">分析销售数据</text>
      <text x="44" y="40" fill="rgba(255,255,255,0.25)" font-size="10">Talor · 1小时前</text>
    </g>

    <!-- Session item -->
    <g transform="translate(10, 296)">
      <rect width="240" height="56" rx="10" fill="transparent" />
      <rect x="8" y="10" width="28" height="28" rx="7" fill="rgba(59,130,246,0.15)" />
      <text x="22" y="29" text-anchor="middle" fill="#60a5fa" font-size="11" font-weight="700">T</text>
      <text x="44" y="24" fill="rgba(255,255,255,0.7)" font-size="12">代码审查建议</text>
      <text x="44" y="40" fill="rgba(255,255,255,0.25)" font-size="10">Talor · 3小时前</text>
    </g>

    <!-- Section "昨天" -->
    <text x="20" y="378" fill="rgba(255,255,255,0.3)" font-size="10" font-weight="600" letter-spacing="1">昨天</text>

    <g transform="translate(10, 388)">
      <rect width="240" height="56" rx="10" fill="transparent" />
      <rect x="8" y="10" width="28" height="28" rx="7" fill="rgba(245,158,11,0.15)" />
      <text x="22" y="29" text-anchor="middle" fill="#fbbf24" font-size="11" font-weight="700">销</text>
      <text x="44" y="24" fill="rgba(255,255,255,0.7)" font-size="12">Q1 销售报告</text>
      <text x="44" y="40" fill="rgba(255,255,255,0.25)" font-size="10">销售分析师 · 昨天</text>
    </g>

    <!-- Sidebar: Bottom area -->
    <g transform="translate(0, 830)">
      <rect x="0" y="0" width="260" height="70" fill="rgba(0,0,0,0.2)" />
      <line x1="16" y1="0" x2="244" y2="0" stroke="rgba(255,255,255,0.06)" stroke-width="0.5" />
      <!-- Settings gear -->
      <g transform="translate(16, 16)">
        <rect width="40" height="40" rx="10" fill="rgba(255,255,255,0.06)" />
        <text x="20" y="27" text-anchor="middle" fill="rgba(255,255,255,0.5)" font-size="18">⚙</text>
      </g>
      <!-- User info -->
      <text x="66" y="32" fill="rgba(255,255,255,0.6)" font-size="12" font-weight="500">Quinn</text>
      <text x="66" y="48" fill="rgba(255,255,255,0.25)" font-size="10">设置 · 快捷键 ⌘,</text>
    </g>

    <!-- ═══ RIGHT: CHAT AREA ═══ -->
    <rect x="260" y="36" width="1040" height="864" fill="url(#chatBg)" />

    <!-- Chat: Top Bar -->
    <rect x="260" y="36" width="1040" height="52" fill="white" />
    <line x1="260" y1="88" x2="1300" y2="88" stroke="#e2e8f0" stroke-width="0.5" />

    <!-- Agent selector (left) -->
    <g transform="translate(280, 46)">
      <rect width="200" height="34" rx="8" fill="#f8fafc" stroke="#e2e8f0" stroke-width="0.5" />
      <rect x="6" y="5" width="24" height="24" rx="6" fill="rgba(139,92,246,0.15)" />
      <text x="18" y="22" text-anchor="middle" fill="#8b5cf6" font-size="10" font-weight="700">飞</text>
      <text x="38" y="17" fill="#334155" font-size="12" font-weight="500">飞书文档助手</text>
      <text x="38" y="30" fill="#94a3b8" font-size="9">lark-doc-agent</text>
      <text x="184" y="22" fill="#94a3b8" font-size="10">▾</text>
    </g>

    <!-- Model selector (right) -->
    <g transform="translate(1100, 46)">
      <rect width="180" height="34" rx="8" fill="#f8fafc" stroke="#e2e8f0" stroke-width="0.5" />
      <circle cx="16" cy="17" r="4" fill="#22c55e" />
      <text x="28" y="17" fill="#334155" font-size="11">claude-sonnet-4</text>
      <text x="28" y="30" fill="#94a3b8" font-size="9">Anthropic</text>
      <text x="164" y="22" fill="#94a3b8" font-size="10">▾</text>
    </g>


    <!-- ═══ Message Area ═══ -->

    <!-- User message -->
    <g transform="translate(660, 120)">
      <rect x="0" y="0" width="560" height="44" rx="16" fill="#3b82f6" />
      <text x="20" y="28" fill="white" font-size="13">请帮我整理飞书文档空间里的项目文档</text>
    </g>

    <!-- Assistant message with agent avatar -->
    <g transform="translate(290, 184)">
      <rect x="0" y="0" width="28" height="28" rx="7" fill="rgba(139,92,246,0.15)" />
      <text x="14" y="19" text-anchor="middle" fill="#8b5cf6" font-size="10" font-weight="700">飞</text>
    </g>
    <g transform="translate(326, 180)">
      <rect x="0" y="0" width="620" height="100" rx="16" fill="white" filter="url(#shadow)" />
      <text x="20" y="28" fill="#334155" font-size="13">好的，我来帮你整理文档。首先让我查看一下你的飞书空间...</text>
      <text x="20" y="48" fill="#334155" font-size="13">我将使用飞书文档技能来操作。</text>

      <!-- Tool call inline -->
      <g transform="translate(16, 62)">
        <rect x="0" y="0" width="280" height="30" rx="8" fill="#f1f5f9" />
        <circle cx="14" cy="15" r="5" fill="#22c55e" />
        <text x="26" y="19" fill="#64748b" font-size="11" font-weight="500">skill</text>
        <text x="60" y="19" fill="#94a3b8" font-size="11">→ lark-doc activated</text>
        <text x="260" y="19" fill="#94a3b8" font-size="10">1.2s</text>
      </g>
    </g>

    <!-- Tool call expanded -->
    <g transform="translate(326, 300)">
      <rect x="0" y="0" width="620" height="90" rx="16" fill="white" filter="url(#shadow)" />

      <g transform="translate(16, 14)">
        <rect x="0" y="0" width="588" height="30" rx="8" fill="#f1f5f9" />
        <circle cx="14" cy="15" r="5" fill="#22c55e" />
        <text x="26" y="19" fill="#64748b" font-size="11" font-weight="500">bash</text>
        <text x="60" y="19" fill="#94a3b8" font-size="11">lark-cli list-docs --space "项目文档"</text>
        <text x="556" y="19" fill="#94a3b8" font-size="10">3.4s</text>
      </g>
      <text x="20" y="68" fill="#334155" font-size="13">找到了 12 个文档，让我为你分类整理...</text>
    </g>

    <!-- Code block in message -->
    <g transform="translate(326, 410)">
      <rect x="0" y="0" width="620" height="140" rx="16" fill="white" filter="url(#shadow)" />
      <text x="20" y="28" fill="#334155" font-size="13">文档分类结果：</text>

      <!-- Code block -->
      <g transform="translate(16, 40)">
        <rect x="0" y="0" width="588" height="86" rx="8" fill="#1e293b" />
        <!-- Language tag -->
        <rect x="0" y="0" width="60" height="22" rx="8" fill="rgba(255,255,255,0.08)" />
        <text x="30" y="15" text-anchor="middle" fill="rgba(255,255,255,0.4)" font-size="9">markdown</text>
        <!-- Copy button -->
        <rect x="544" y="2" width="40" height="20" rx="5" fill="rgba(255,255,255,0.06)" />
        <text x="564" y="15" text-anchor="middle" fill="rgba(255,255,255,0.3)" font-size="9">复制</text>
        <!-- Code content -->
        <text x="16" y="40" fill="#93c5fd" font-size="11" font-family="monospace">## 项目文档 (12个)</text>
        <text x="16" y="56" fill="#86efac" font-size="11" font-family="monospace">- 产品需求/ (5个)</text>
        <text x="16" y="72" fill="#86efac" font-size="11" font-family="monospace">- 技术方案/ (4个)</text>
      </g>
    </g>

    <!-- ═══ Input Area ═══ -->
    <g transform="translate(260, 770)">
      <rect x="0" y="0" width="1040" height="130" fill="url(#inputGrad)" />
      <line x1="0" y1="0" x2="1040" y2="0" stroke="#e2e8f0" stroke-width="0.5" />

      <!-- Workspace pill (above input) -->
      <g transform="translate(160, 6)">
        <rect x="0" y="0" width="148" height="24" rx="6" fill="#f1f5f9" stroke="#e2e8f0" stroke-width="0.5" />
        <text x="10" y="16" fill="#475569" font-size="10">📁</text>
        <text x="24" y="16" fill="#475569" font-size="10">~/Desktop/talor</text>
        <text x="134" y="16" fill="#94a3b8" font-size="8">▾</text>
      </g>

      <!-- Input box -->
      <g transform="translate(160, 32)">
        <rect x="0" y="0" width="720" height="80" rx="16" fill="white" stroke="#d1d5db" stroke-width="1" filter="url(#shadow)" />

        <!-- Attachment button -->
        <g transform="translate(12, 42)">
          <rect x="0" y="0" width="32" height="32" rx="8" fill="#f8fafc" />
          <text x="16" y="22" text-anchor="middle" fill="#94a3b8" font-size="16">📎</text>
        </g>

        <!-- Textarea -->
        <text x="56" y="26" fill="#94a3b8" font-size="13">给飞书文档助手发消息...</text>
        <text x="56" y="46" fill="#cbd5e1" font-size="10">Shift+Enter 换行 · 支持拖拽文件</text>

        <!-- Send button -->
        <g transform="translate(668, 40)">
          <rect x="0" y="0" width="40" height="32" rx="10" fill="url(#sendBtn)" />
          <text x="20" y="21" text-anchor="middle" fill="white" font-size="14">↑</text>
        </g>
      </g>
    </g>
  </g>

  <!-- Annotations for Screen 1 -->
  <g transform="translate(50, 1060)">
    <rect x="0" y="0" width="420" height="120" rx="12" fill="rgba(59,130,246,0.06)" stroke="rgba(59,130,246,0.15)" stroke-width="0.5" />
    <text x="16" y="24" fill="#60a5fa" font-size="11" font-weight="600">左侧边栏改进</text>
    <text x="16" y="44" fill="rgba(255,255,255,0.5)" font-size="11">✦ 搜索框 + ⌘K 快捷键</text>
    <text x="16" y="60" fill="rgba(255,255,255,0.5)" font-size="11">✦ 会话按日期分组 (今天/昨天/更早)</text>
    <text x="16" y="76" fill="rgba(255,255,255,0.5)" font-size="11">✦ 会话显示 Agent 头像 + 标签</text>
    <text x="16" y="92" fill="rgba(255,255,255,0.5)" font-size="11">✦ 底部: 设置齿轮 + 用户名 + ⌘,</text>
    <text x="16" y="108" fill="rgba(255,255,255,0.5)" font-size="11">✦ 深色背景，与聊天区对比</text>
  </g>

  <g transform="translate(490, 1060)">
    <rect x="0" y="0" width="420" height="120" rx="12" fill="rgba(16,185,129,0.06)" stroke="rgba(16,185,129,0.15)" stroke-width="0.5" />
    <text x="16" y="24" fill="#34d399" font-size="11" font-weight="600">聊天区改进</text>
    <text x="16" y="44" fill="rgba(255,255,255,0.5)" font-size="11">✦ 顶栏: Agent 选择器 + Model 选择器</text>
    <text x="16" y="60" fill="rgba(255,255,255,0.5)" font-size="11">✦ 输入框上方: Workspace 选择器 (灰色调一致)</text>
    <text x="16" y="76" fill="rgba(255,255,255,0.5)" font-size="11">✦ 工具调用: 内联折叠卡片 (状态+耗时)</text>
    <text x="16" y="92" fill="rgba(255,255,255,0.5)" font-size="11">✦ 输入框: 多行自适应 + 附件 + 发送按钮</text>
    <text x="16" y="108" fill="rgba(255,255,255,0.5)" font-size="11">✦ Markdown 渲染 + 语法高亮</text>
  </g>

  <g transform="translate(930, 1060)">
    <rect x="0" y="0" width="420" height="120" rx="12" fill="rgba(245,158,11,0.06)" stroke="rgba(245,158,11,0.15)" stroke-width="0.5" />
    <text x="16" y="24" fill="#fbbf24" font-size="11" font-weight="600">核心交互</text>
    <text x="16" y="44" fill="rgba(255,255,255,0.5)" font-size="11">✦ 启动直接进入最新会话</text>
    <text x="16" y="60" fill="rgba(255,255,255,0.5)" font-size="11">✦ ⌘N 新建会话 · ⌘, 设置 · Esc 停止</text>
    <text x="16" y="76" fill="rgba(255,255,255,0.5)" font-size="11">✦ 首条消息后自动命名会话</text>
    <text x="16" y="92" fill="rgba(255,255,255,0.5)" font-size="11">✦ Agent 切换实时生效</text>
    <text x="16" y="108" fill="rgba(255,255,255,0.5)" font-size="11">✦ 拖拽文件直接上传</text>
  </g>

  <!-- ============================================= -->
  <!-- SCREEN 2: EMPTY STATE / NEW USER -->
  <!-- ============================================= -->
  <text x="50" y="1220" fill="#60a5fa" font-size="14" font-weight="600" letter-spacing="1">SCREEN 2 — 空状态（无会话 / 新用户）</text>

  <g transform="translate(50, 1240)">
    <rect width="1300" height="500" rx="12" fill="#1e293b" />
    <!-- Traffic lights -->
    <rect x="0" y="0" width="1300" height="36" rx="12" fill="#1e293b" />
    <circle cx="20" cy="18" r="6" fill="#ef4444" />
    <circle cx="40" cy="18" r="6" fill="#eab308" />
    <circle cx="60" cy="18" r="6" fill="#22c55e" />

    <!-- Sidebar (empty) -->
    <rect x="0" y="36" width="260" height="464" fill="url(#sidebar)" />
    <g transform="translate(16, 52)">
      <rect width="228" height="36" rx="8" fill="rgba(255,255,255,0.06)" />
      <text x="36" y="23" fill="rgba(255,255,255,0.3)" font-size="12">搜索会话...</text>
      <text x="12" y="23" fill="rgba(255,255,255,0.25)" font-size="13">🔍</text>
    </g>
    <g transform="translate(16, 96)">
      <rect width="228" height="40" rx="10" fill="rgba(59,130,246,0.12)" stroke="rgba(59,130,246,0.25)" stroke-width="0.5" />
      <text x="114" y="26" text-anchor="middle" fill="#60a5fa" font-size="13" font-weight="600">+ 新建会话</text>
    </g>

    <text x="130" y="260" text-anchor="middle" fill="rgba(255,255,255,0.15)" font-size="12">暂无会话</text>

    <!-- Settings bottom -->
    <g transform="translate(0, 430)">
      <rect x="0" y="0" width="260" height="70" fill="rgba(0,0,0,0.2)" />
      <g transform="translate(16, 16)">
        <rect width="40" height="40" rx="10" fill="rgba(255,255,255,0.06)" />
        <text x="20" y="27" text-anchor="middle" fill="rgba(255,255,255,0.5)" font-size="18">⚙</text>
      </g>
      <text x="66" y="32" fill="rgba(255,255,255,0.6)" font-size="12">Quinn</text>
      <text x="66" y="48" fill="rgba(255,255,255,0.25)" font-size="10">设置 · ⌘,</text>
    </g>

    <!-- Chat area: Empty State -->
    <rect x="260" y="36" width="1040" height="464" fill="url(#chatBg)" />

    <!-- Centered content -->
    <g transform="translate(780, 140)">
      <!-- Logo -->
      <rect x="-32" y="-32" width="64" height="64" rx="16" fill="rgba(59,130,246,0.08)" stroke="rgba(59,130,246,0.15)" stroke-width="1" />
      <text x="0" y="10" text-anchor="middle" fill="#3b82f6" font-size="28" font-weight="700">T</text>

      <text x="0" y="56" text-anchor="middle" fill="#334155" font-size="20" font-weight="600">开始新对话</text>
      <text x="0" y="80" text-anchor="middle" fill="#94a3b8" font-size="13">选择一个 Agent 或直接开始聊天</text>
    </g>

    <!-- Agent quick cards -->
    <g transform="translate(480, 280)">
      <!-- Card 1: Default -->
      <g transform="translate(0, 0)">
        <rect x="0" y="0" width="180" height="100" rx="12" fill="white" stroke="#e2e8f0" stroke-width="0.5" filter="url(#shadow)" />
        <rect x="14" y="14" width="32" height="32" rx="8" fill="rgba(59,130,246,0.1)" />
        <text x="30" y="35" text-anchor="middle" fill="#3b82f6" font-size="14" font-weight="700">T</text>
        <text x="54" y="28" fill="#334155" font-size="12" font-weight="600">Talor</text>
        <text x="54" y="42" fill="#94a3b8" font-size="10">通用助手</text>
        <text x="14" y="76" fill="#64748b" font-size="10">聊天 · 写作 · 分析</text>
      </g>

      <!-- Card 2: Lark -->
      <g transform="translate(200, 0)">
        <rect x="0" y="0" width="180" height="100" rx="12" fill="white" stroke="#e2e8f0" stroke-width="0.5" filter="url(#shadow)" />
        <rect x="14" y="14" width="32" height="32" rx="8" fill="rgba(139,92,246,0.1)" />
        <text x="30" y="35" text-anchor="middle" fill="#8b5cf6" font-size="14" font-weight="700">飞</text>
        <text x="54" y="28" fill="#334155" font-size="12" font-weight="600">飞书文档助手</text>
        <text x="54" y="42" fill="#94a3b8" font-size="10">lark-doc-agent</text>
        <text x="14" y="76" fill="#64748b" font-size="10">创建 · 读取 · 编辑文档</text>
      </g>

      <!-- Card 3: Sales -->
      <g transform="translate(400, 0)">
        <rect x="0" y="0" width="180" height="100" rx="12" fill="white" stroke="#e2e8f0" stroke-width="0.5" filter="url(#shadow)" />
        <rect x="14" y="14" width="32" height="32" rx="8" fill="rgba(245,158,11,0.1)" />
        <text x="30" y="35" text-anchor="middle" fill="#f59e0b" font-size="14" font-weight="700">销</text>
        <text x="54" y="28" fill="#334155" font-size="12" font-weight="600">销售分析师</text>
        <text x="54" y="42" fill="#94a3b8" font-size="10">sales-analyst</text>
        <text x="14" y="76" fill="#64748b" font-size="10">数据分析 · 报告生成</text>
      </g>
    </g>

    <!-- Suggested prompts -->
    <g transform="translate(530, 410)">
      <rect x="0" y="0" width="240" height="36" rx="10" fill="white" stroke="#e2e8f0" stroke-width="0.5" />
      <text x="16" y="23" fill="#64748b" font-size="11">💡 帮我写一份项目总结</text>
    </g>
    <g transform="translate(790, 410)">
      <rect x="0" y="0" width="240" height="36" rx="10" fill="white" stroke="#e2e8f0" stroke-width="0.5" />
      <text x="16" y="23" fill="#64748b" font-size="11">📊 分析这份数据报表</text>
    </g>
  </g>

  <!-- ============================================= -->
  <!-- SCREEN 3: SETTINGS (with Agents tab) -->
  <!-- ============================================= -->
  <text x="50" y="1790" fill="#60a5fa" font-size="14" font-weight="600" letter-spacing="1">SCREEN 3 — 设置页面（含 Agent 管理 tab）</text>

  <g transform="translate(50, 1810)">
    <rect width="1300" height="500" rx="12" fill="#1e293b" />
    <rect x="0" y="0" width="1300" height="36" rx="12" fill="#1e293b" />
    <circle cx="20" cy="18" r="6" fill="#ef4444" />
    <circle cx="40" cy="18" r="6" fill="#eab308" />
    <circle cx="60" cy="18" r="6" fill="#22c55e" />

    <!-- Settings page (full width, no sidebar) -->
    <rect x="0" y="36" width="1300" height="464" fill="url(#chatBg)" />

    <!-- Back button -->
    <g transform="translate(20, 50)">
      <rect x="0" y="0" width="80" height="32" rx="8" fill="white" stroke="#e2e8f0" stroke-width="0.5" />
      <text x="40" y="21" text-anchor="middle" fill="#64748b" font-size="12">← 返回</text>
    </g>

    <text x="120" y="74" fill="#0f172a" font-size="20" font-weight="700">设置</text>

    <!-- Tabs (Provider active) -->
    <g transform="translate(120, 92)">
      <text x="0" y="16" fill="#64748b" font-size="13">Common</text>
      <text x="80" y="16" fill="#3b82f6" font-size="13" font-weight="600">Provider</text>
      <rect x="80" y="22" width="60" height="2" rx="1" fill="#3b82f6" />
      <text x="170" y="16" fill="#64748b" font-size="13">MCP</text>
      <text x="220" y="16" fill="#64748b" font-size="13">Agent</text>
      <text x="290" y="16" fill="#64748b" font-size="13">Account</text>
    </g>
    <line x1="120" y1="118" x2="1180" y2="118" stroke="#e2e8f0" stroke-width="0.5" />

    <!-- Provider list content -->
    <g transform="translate(120, 136)">
      <!-- Provider card -->
      <rect x="0" y="0" width="960" height="70" rx="12" fill="white" stroke="#e2e8f0" stroke-width="0.5" />
      <circle cx="30" cy="35" r="16" fill="rgba(16,185,129,0.1)" />
      <text x="30" y="39" text-anchor="middle" fill="#059669" font-size="10" font-weight="700">A</text>
      <text x="56" y="28" fill="#334155" font-size="13" font-weight="600">Anthropic</text>
      <text x="56" y="46" fill="#94a3b8" font-size="11">claude-sonnet-4 · claude-opus-4 · claude-haiku-4</text>
      <rect x="820" y="18" width="60" height="24" rx="6" fill="#ecfdf5" />
      <text x="850" y="34" text-anchor="middle" fill="#059669" font-size="10" font-weight="500">默认</text>
      <rect x="890" y="18" width="56" height="24" rx="6" fill="#f1f5f9" />
      <text x="918" y="34" text-anchor="middle" fill="#64748b" font-size="10">编辑</text>

      <!-- Provider card 2 -->
      <g transform="translate(0, 84)">
        <rect x="0" y="0" width="960" height="70" rx="12" fill="white" stroke="#e2e8f0" stroke-width="0.5" />
        <circle cx="30" cy="35" r="16" fill="rgba(59,130,246,0.1)" />
        <text x="30" y="39" text-anchor="middle" fill="#3b82f6" font-size="10" font-weight="700">O</text>
        <text x="56" y="28" fill="#334155" font-size="13" font-weight="600">OpenAI</text>
        <text x="56" y="46" fill="#94a3b8" font-size="11">gpt-4o · gpt-4o-mini</text>
        <rect x="890" y="18" width="56" height="24" rx="6" fill="#f1f5f9" />
        <text x="918" y="34" text-anchor="middle" fill="#64748b" font-size="10">编辑</text>
      </g>

      <!-- Add provider button -->
      <g transform="translate(0, 178)">
        <rect x="0" y="0" width="960" height="48" rx="12" fill="white" stroke="#e2e8f0" stroke-width="0.5" stroke-dasharray="6,4" />
        <text x="480" y="30" text-anchor="middle" fill="#94a3b8" font-size="12">+ 添加 Provider</text>
      </g>
    </g>
  </g>

  <!-- Annotation: Agent tab mockup -->
  <g transform="translate(50, 2330)">
    <rect x="0" y="0" width="1300" height="36" rx="12" fill="#1e293b" />
    <rect width="1300" height="380" rx="12" fill="#1e293b" />
    <circle cx="20" cy="18" r="6" fill="#ef4444" />
    <circle cx="40" cy="18" r="6" fill="#eab308" />
    <circle cx="60" cy="18" r="6" fill="#22c55e" />

    <rect x="0" y="36" width="1300" height="344" fill="url(#chatBg)" />

    <g transform="translate(20, 50)">
      <rect x="0" y="0" width="80" height="32" rx="8" fill="white" stroke="#e2e8f0" stroke-width="0.5" />
      <text x="40" y="21" text-anchor="middle" fill="#64748b" font-size="12">← 返回</text>
    </g>
    <text x="120" y="74" fill="#0f172a" font-size="20" font-weight="700">设置</text>

    <!-- Tabs (Agent active) -->
    <g transform="translate(120, 92)">
      <text x="0" y="16" fill="#64748b" font-size="13">Common</text>
      <text x="80" y="16" fill="#64748b" font-size="13">Provider</text>
      <text x="160" y="16" fill="#64748b" font-size="13">MCP</text>
      <text x="210" y="16" fill="#3b82f6" font-size="13" font-weight="600">Agent</text>
      <rect x="210" y="22" width="40" height="2" rx="1" fill="#3b82f6" />
      <text x="280" y="16" fill="#64748b" font-size="13">Account</text>
    </g>
    <line x1="120" y1="118" x2="1180" y2="118" stroke="#e2e8f0" stroke-width="0.5" />

    <!-- Agent grid -->
    <g transform="translate(120, 136)">
      <!-- Agent Card 1 -->
      <rect x="0" y="0" width="300" height="150" rx="14" fill="white" stroke="#e2e8f0" stroke-width="0.5" filter="url(#shadow)" />
      <rect x="16" y="16" width="40" height="40" rx="10" fill="rgba(139,92,246,0.1)" />
      <text x="36" y="42" text-anchor="middle" fill="#8b5cf6" font-size="16" font-weight="700">飞</text>
      <text x="68" y="32" fill="#334155" font-size="14" font-weight="600">飞书文档助手</text>
      <text x="68" y="50" fill="#94a3b8" font-size="10">v1.0.0 · lark-doc-agent-001</text>
      <rect x="224" y="20" width="60" height="22" rx="6" fill="#ecfdf5" />
      <text x="254" y="35" text-anchor="middle" fill="#059669" font-size="10">就绪</text>
      <text x="16" y="82" fill="#64748b" font-size="11">使用飞书 Skill 和 lark-cli 操作文档</text>
      <g transform="translate(16, 96)">
        <rect x="0" y="0" width="50" height="20" rx="5" fill="#f1f5f9" />
        <text x="25" y="14" text-anchor="middle" fill="#64748b" font-size="9">bash</text>
        <rect x="56" y="0" width="50" height="20" rx="5" fill="#f1f5f9" />
        <text x="81" y="14" text-anchor="middle" fill="#64748b" font-size="9">skill</text>
        <rect x="112" y="0" width="50" height="20" rx="5" fill="#f1f5f9" />
        <text x="137" y="14" text-anchor="middle" fill="#64748b" font-size="9">lark-cli</text>
      </g>
      <rect x="16" y="124" width="80" height="14" rx="4" fill="rgba(59,130,246,0.08)" />
      <text x="56" y="134" text-anchor="middle" fill="#3b82f6" font-size="9">开始对话 →</text>

      <!-- Agent Card 2 -->
      <g transform="translate(320, 0)">
        <rect x="0" y="0" width="300" height="150" rx="14" fill="white" stroke="#e2e8f0" stroke-width="0.5" filter="url(#shadow)" />
        <rect x="16" y="16" width="40" height="40" rx="10" fill="rgba(245,158,11,0.1)" />
        <text x="36" y="42" text-anchor="middle" fill="#f59e0b" font-size="16" font-weight="700">销</text>
        <text x="68" y="32" fill="#334155" font-size="14" font-weight="600">销售分析师</text>
        <text x="68" y="50" fill="#94a3b8" font-size="10">v1.0.0 · sales-analyst-001</text>
        <rect x="224" y="20" width="60" height="22" rx="6" fill="#ecfdf5" />
        <text x="254" y="35" text-anchor="middle" fill="#059669" font-size="10">就绪</text>
        <text x="16" y="82" fill="#64748b" font-size="11">分析销售数据，生成报表</text>
        <g transform="translate(16, 96)">
          <rect x="0" y="0" width="50" height="20" rx="5" fill="#f1f5f9" />
          <text x="25" y="14" text-anchor="middle" fill="#64748b" font-size="9">bash</text>
          <rect x="56" y="0" width="50" height="20" rx="5" fill="#f1f5f9" />
          <text x="81" y="14" text-anchor="middle" fill="#64748b" font-size="9">read</text>
        </g>
        <rect x="16" y="124" width="80" height="14" rx="4" fill="rgba(59,130,246,0.08)" />
        <text x="56" y="134" text-anchor="middle" fill="#3b82f6" font-size="9">开始对话 →</text>
      </g>

      <!-- Import button -->
      <g transform="translate(640, 0)">
        <rect x="0" y="0" width="300" height="150" rx="14" fill="white" stroke="#e2e8f0" stroke-width="0.5" stroke-dasharray="6,4" />
        <text x="150" y="70" text-anchor="middle" fill="#94a3b8" font-size="24">+</text>
        <text x="150" y="96" text-anchor="middle" fill="#94a3b8" font-size="12">导入 Agent</text>
      </g>
    </g>
  </g>

  <!-- ============================================= -->
  <!-- BOTTOM: Keyboard Shortcuts Reference -->
  <!-- ============================================= -->
  <g transform="translate(50, 2734)">
    <rect x="0" y="0" width="1300" height="50" rx="12" fill="rgba(255,255,255,0.02)" stroke="rgba(255,255,255,0.06)" stroke-width="0.5" />

    <g transform="translate(30, 18)">
      <rect x="0" y="0" width="40" height="20" rx="4" fill="rgba(255,255,255,0.06)" />
      <text x="20" y="14" text-anchor="middle" fill="rgba(255,255,255,0.4)" font-size="9">⌘N</text>
      <text x="48" y="14" fill="rgba(255,255,255,0.3)" font-size="10">新建会话</text>
    </g>
    <g transform="translate(180, 18)">
      <rect x="0" y="0" width="40" height="20" rx="4" fill="rgba(255,255,255,0.06)" />
      <text x="20" y="14" text-anchor="middle" fill="rgba(255,255,255,0.4)" font-size="9">⌘,</text>
      <text x="48" y="14" fill="rgba(255,255,255,0.3)" font-size="10">设置</text>
    </g>
    <g transform="translate(310, 18)">
      <rect x="0" y="0" width="40" height="20" rx="4" fill="rgba(255,255,255,0.06)" />
      <text x="20" y="14" text-anchor="middle" fill="rgba(255,255,255,0.4)" font-size="9">⌘K</text>
      <text x="48" y="14" fill="rgba(255,255,255,0.3)" font-size="10">搜索会话</text>
    </g>
    <g transform="translate(450, 18)">
      <rect x="0" y="0" width="40" height="20" rx="4" fill="rgba(255,255,255,0.06)" />
      <text x="20" y="14" text-anchor="middle" fill="rgba(255,255,255,0.4)" font-size="9">Esc</text>
      <text x="48" y="14" fill="rgba(255,255,255,0.3)" font-size="10">停止生成</text>
    </g>
    <g transform="translate(590, 18)">
      <rect x="0" y="0" width="40" height="20" rx="4" fill="rgba(255,255,255,0.06)" />
      <text x="20" y="14" text-anchor="middle" fill="rgba(255,255,255,0.4)" font-size="9">⌘F</text>
      <text x="48" y="14" fill="rgba(255,255,255,0.3)" font-size="10">搜索消息</text>
    </g>
    <g transform="translate(730, 18)">
      <rect x="0" y="0" width="80" height="20" rx="4" fill="rgba(255,255,255,0.06)" />
      <text x="40" y="14" text-anchor="middle" fill="rgba(255,255,255,0.4)" font-size="9">Shift+Enter</text>
      <text x="88" y="14" fill="rgba(255,255,255,0.3)" font-size="10">换行</text>
    </g>
    <g transform="translate(920, 18)">
      <rect x="0" y="0" width="50" height="20" rx="4" fill="rgba(255,255,255,0.06)" />
      <text x="25" y="14" text-anchor="middle" fill="rgba(255,255,255,0.4)" font-size="9">Enter</text>
      <text x="58" y="14" fill="rgba(255,255,255,0.3)" font-size="10">发送</text>
    </g>
  </g>
</svg>
